<svg width="512" height="512" viewBox="0 0 512 512" fill="none" xmlns="http://www.w3.org/2000/svg">
  <defs>
    <linearGradient id="g" x1="430" y1="40" x2="90" y2="480" gradientUnits="userSpaceOnUse">
      <stop offset="0" stop-color="#ffb24d"/>
      <stop offset="0.45" stop-color="#ff7a3d"/>
      <stop offset="1" stop-color="#ff3d8b"/>
    </linearGradient>
  </defs>
  <!-- tile -->
  <rect x="16" y="16" width="480" height="480" rx="116" fill="url(#g)"/>
  <!-- big bold L -->
  <g fill="#ffffff">
    <rect x="170" y="104" width="86" height="304" rx="34"/>
    <rect x="170" y="322" width="218" height="86" rx="34"/>
  </g>
  <!-- sparkles (kept small so the L stays the hero) -->
  <g fill="#ffffff">
    <path d="M118 150 l9 22 22 9 -22 9 -9 22 -9 -22 -22 -9 22 -9 z"/>
    <path d="M392 132 l7 17 17 7 -17 7 -7 17 -7 -17 -17 -7 17 -7 z"/>
    <path d="M120 392 l7 17 17 7 -17 7 -7 17 -7 -17 -17 -7 17 -7 z"/>
  </g>
  <path d="M404 196 l5 12 12 5 -12 5 -5 12 -5 -12 -12 -5 12 -5 z" fill="#ffe14d"/>
</svg>
